<?xml version="1.0" encoding="UTF-8"?>
<svg viewBox="0 0 184 115" version="1.1" xmlns="http://www.w3.org/2000/svg" xmlns:xlink="http://www.w3.org/1999/xlink">
    <g id="Page-1" stroke="none" stroke-width="1" fill="none" fill-rule="evenodd">
        <g id="Homepage--Copy-5" transform="translate(-51.000000, -59.000000)">
            <g id="Logo" transform="translate(51.003334, 59.000000)">
                <path d="M27.4859981,114.708002 L24.7868957,111.160922 L112.70505,44.82879 C114.761673,43.2780691 116.088813,41.0249636 116.441646,38.4859744 C116.794479,35.9469852 116.135792,33.4220301 114.580386,31.3800538 C113.02908,29.3372805 110.768187,28.0201515 108.220192,27.6731133 C105.668551,27.3267837 103.131364,27.9888654 101.078402,29.5365221 L22.6330647,88.7191021 C16.4215258,93.4123032 7.55327767,92.1908258 2.85984213,86.0221903 C0.585882138,83.0324287 -0.381029827,79.3378254 0.136100842,75.6178086 C0.653304729,71.9006008 2.59667455,68.6021389 5.6040228,66.3330172 L93.5267334,3.69482223e-13 L96.2259239,3.54753376 L8.30312521,69.8800975 C6.24695824,71.4307298 4.91981787,73.6838354 4.56698469,76.2228246 C4.21423964,78.7622672 4.87238294,81.2868575 6.42778962,83.3288337 C9.63296228,87.5454935 15.6942517,88.3672161 19.9339622,85.1720218 L98.3792994,25.9894418 C101.386663,23.7179644 105.090499,22.7477152 108.833627,23.2614854 C112.567143,23.769595 115.874726,25.6987493 118.148774,28.6889643 C122.842562,34.8594135 121.61281,43.6921699 115.404152,48.3758704 L27.4859981,114.708002 Z" id="Mark" fill="#CFCFCF" opacity="0.400000006"></path>
                <path d="M41.4366665,52.5 C41.4366665,55.54 43.6966665,57.24 46.7966665,57.24 C49.5166665,57.24 51.5166665,55.9 51.5166665,53.58 C51.5166665,51.56 50.3566665,50.56 48.0566665,50.12 L45.7766665,49.68 C44.3166665,49.4 43.4966665,49 43.4966665,47.76 C43.4966665,46.36 44.5166665,45.5 46.3366665,45.5 C48.4166665,45.5 49.6766665,46.68 49.7366665,48.76 L51.3166665,48.68 C51.2966665,45.84 49.4766665,44.16 46.3166665,44.16 C43.5566665,44.16 41.8166665,45.66 41.8166665,47.86 C41.8166665,49.82 43.0966665,50.82 44.9566665,51.18 L47.4566665,51.66 C49.0966665,51.98 49.8566665,52.54 49.8566665,53.7 C49.8566665,55.08 48.6766665,55.88 46.7966665,55.88 C44.6766665,55.88 43.0966665,54.7 42.9966665,52.4 L41.4366665,52.5 Z M58.0243586,50.44 L54.0843586,44.4 L52.1843586,44.4 L57.1043586,52.06 L57.1043586,57 L58.7643586,57 L58.7643586,52.06 L63.6643586,44.4 L61.8243586,44.4 L58.0243586,50.44 Z M67.2520508,44.4 L65.4520508,44.4 L65.4520508,57 L67.0720508,57 L67.0720508,46.88 L74.3920508,57 L75.7720508,57 L75.7720508,44.4 L74.1520508,44.4 L74.1520508,54.04 L67.2520508,44.4 Z M77.9597429,50.7 C77.9597429,54.58 80.6597429,57.24 84.1397429,57.24 C87.7397429,57.24 89.7797429,55.02 90.0197429,51.78 L88.3397429,51.7 C88.1997429,54.02 86.7397429,55.76 84.1397429,55.76 C81.5797429,55.76 79.7397429,53.8 79.7397429,50.7 C79.7397429,47.6 81.5797429,45.64 84.1397429,45.64 C86.7397429,45.64 88.1997429,47.38 88.3397429,49.7 L90.0197429,49.62 C89.7797429,46.38 87.7397429,44.16 84.1397429,44.16 C80.6597429,44.16 77.9597429,46.82 77.9597429,50.7 Z M93.9274351,57 L93.9274351,51.22 L101.167435,51.22 L101.167435,57 L102.907435,57 L102.907435,44.4 L101.167435,44.4 L101.167435,49.8 L93.9274351,49.8 L93.9274351,44.4 L92.1874351,44.4 L92.1874351,57 L93.9274351,57 Z M115.715127,57 C115.295127,56.54 115.235127,55.82 115.075127,53.98 C114.955127,52.5 114.215127,51.56 112.675127,51.26 C114.215127,51.08 115.535127,50.06 115.535127,48.12 C115.535127,45.88 113.995127,44.4 110.795127,44.4 L105.675127,44.4 L105.675127,57 L107.375127,57 L107.375127,51.92 L110.935127,51.92 C112.586327,51.92 113.260631,52.786304 113.382712,54.0942387 L113.436338,54.7887109 C113.541065,55.9609375 113.705127,56.7025 113.915127,57 L115.715127,57 Z M107.375127,50.54 L107.375127,45.82 L110.695127,45.82 C112.835127,45.82 113.795127,46.74 113.795127,48.18 C113.795127,49.74 112.835127,50.54 110.695127,50.54 L107.375127,50.54 Z M129.762819,50.7 C129.762819,46.82 127.162819,44.16 123.502819,44.16 C119.822819,44.16 117.242819,46.82 117.242819,50.7 C117.242819,54.58 119.822819,57.24 123.502819,57.24 C127.162819,57.24 129.762819,54.58 129.762819,50.7 Z M127.962819,50.7 C127.962819,53.78 126.222819,55.76 123.502819,55.76 C120.782819,55.76 119.022819,53.78 119.022819,50.7 C119.022819,47.62 120.782819,45.64 123.502819,45.64 C126.222819,45.64 127.962819,47.62 127.962819,50.7 Z M133.730511,44.4 L131.930511,44.4 L131.930511,57 L133.550511,57 L133.550511,46.88 L140.870511,57 L142.250511,57 L142.250511,44.4 L140.630511,44.4 L140.630511,54.04 L133.730511,44.4 Z M145.018204,44.4 L145.018204,57 L146.758204,57 L146.758204,44.4 L145.018204,44.4 Z M151.105896,55.56 L158.705896,45.68 L158.705896,44.4 L149.005896,44.4 L149.005896,45.84 L156.505896,45.84 L148.905896,55.78 L148.905896,57 L158.905896,57 L158.905896,55.56 L151.105896,55.56 Z M170.033588,55.56 L162.733588,55.56 L162.733588,51.22 L168.393588,51.22 L168.393588,49.8 L162.733588,49.8 L162.733588,45.84 L169.853588,45.84 L169.853588,44.4 L161.053588,44.4 L161.053588,57 L170.033588,57 L170.033588,55.56 Z M174.08128,55.58 L174.08128,45.82 L176.80128,45.82 C179.88128,45.82 181.56128,47.64 181.56128,50.7 C181.56128,53.76 179.88128,55.58 176.80128,55.58 L174.08128,55.58 Z M172.34128,57 L176.90128,57 C180.86128,57 183.36128,54.64 183.36128,50.7 C183.36128,46.76 180.86128,44.4 176.90128,44.4 L172.34128,44.4 L172.34128,57 Z M43.9566665,76.58 L43.9566665,66.82 L46.6766665,66.82 C49.7566665,66.82 51.4366665,68.64 51.4366665,71.7 C51.4366665,74.76 49.7566665,76.58 46.6766665,76.58 L43.9566665,76.58 Z M42.2166665,78 L46.7766665,78 C50.7366665,78 53.2366665,75.64 53.2366665,71.7 C53.2366665,67.76 50.7366665,65.4 46.7766665,65.4 L42.2166665,65.4 L42.2166665,78 Z M55.4043586,65.4 L55.4043586,78 L57.1443586,78 L57.1443586,65.4 L55.4043586,65.4 Z M65.4720508,78.24 C67.4320508,78.24 69.2120508,77.36 69.7720508,75.76 L69.7720508,78 L71.3520508,78 L71.3520508,71.78 L65.9320508,71.78 L65.9320508,73.14 L69.7720508,73.14 C69.5520508,75.3 68.0320508,76.78 65.6720508,76.78 C62.9520508,76.78 61.1120508,74.84 61.1120508,71.72 C61.1120508,68.6 62.9320508,66.64 65.5120508,66.64 C68.0520508,66.64 69.5320508,68.16 69.6720508,70.46 L71.3320508,70.36 C71.1120508,67.14 69.0520508,65.16 65.4920508,65.16 C62.0120508,65.16 59.3320508,67.82 59.3320508,71.7 C59.3320508,75.62 61.9120508,78.24 65.4720508,78.24 Z M73.9997429,65.4 L73.9997429,78 L75.7397429,78 L75.7397429,65.4 L73.9997429,65.4 Z M84.0074351,78 L84.0074351,66.84 L88.6674351,66.84 L88.6674351,65.4 L77.7074351,65.4 L77.7074351,66.84 L82.2874351,66.84 L82.2874351,78 L84.0074351,78 Z M93.2551272,65.4 L88.1151272,78 L89.8151272,78 L91.2951272,74.3 L97.0351272,74.3 L98.5551272,78 L100.395127,78 L95.1551272,65.4 L93.2551272,65.4 Z M94.0951272,67.32 L94.1751272,67.32 L96.4751272,72.92 L91.8351272,72.92 L94.0951272,67.32 Z M102.182819,65.4 L102.182819,78 L110.942819,78 L110.942819,76.56 L103.922819,76.56 L103.922819,65.4 L102.182819,65.4 Z M116.138204,73.5 C116.138204,76.54 118.398204,78.24 121.498204,78.24 C124.218204,78.24 126.218204,76.9 126.218204,74.58 C126.218204,72.56 125.058204,71.56 122.758204,71.12 L120.478204,70.68 C119.018204,70.4 118.198204,70 118.198204,68.76 C118.198204,67.36 119.218204,66.5 121.038204,66.5 C123.118204,66.5 124.378204,67.68 124.438204,69.76 L126.018204,69.68 C125.998204,66.84 124.178204,65.16 121.018204,65.16 C118.258204,65.16 116.518204,66.66 116.518204,68.86 C116.518204,70.82 117.798204,71.82 119.658204,72.18 L122.158204,72.66 C123.798204,72.98 124.558204,73.54 124.558204,74.7 C124.558204,76.08 123.378204,76.88 121.498204,76.88 C119.378204,76.88 117.798204,75.7 117.698204,73.4 L116.138204,73.5 Z M133.285896,78 L133.285896,66.84 L137.945896,66.84 L137.945896,65.4 L126.985896,65.4 L126.985896,66.84 L131.565896,66.84 L131.565896,78 L133.285896,78 Z M144.853588,78.24 C147.693588,78.24 149.973588,76.86 149.973588,73.18 L149.973588,65.4 L148.273588,65.4 L148.273588,73.22 C148.273588,75.6 147.053588,76.78 144.853588,76.78 C142.653588,76.78 141.473588,75.6 141.473588,73.2 L141.473588,65.4 L139.753588,65.4 L139.753588,73.18 C139.753588,76.86 142.013588,78.24 144.853588,78.24 Z M154.30128,76.58 L154.30128,66.82 L157.02128,66.82 C160.10128,66.82 161.78128,68.64 161.78128,71.7 C161.78128,74.76 160.10128,76.58 157.02128,76.58 L154.30128,76.58 Z M152.56128,78 L157.12128,78 C161.08128,78 163.58128,75.64 163.58128,71.7 C163.58128,67.76 161.08128,65.4 157.12128,65.4 L152.56128,65.4 L152.56128,78 Z M165.748972,65.4 L165.748972,78 L167.488972,78 L167.488972,65.4 L165.748972,65.4 Z M182.196664,71.7 C182.196664,67.82 179.596664,65.16 175.936664,65.16 C172.256664,65.16 169.676664,67.82 169.676664,71.7 C169.676664,75.58 172.256664,78.24 175.936664,78.24 C179.596664,78.24 182.196664,75.58 182.196664,71.7 Z M180.396664,71.7 C180.396664,74.78 178.656664,76.76 175.936664,76.76 C173.216664,76.76 171.456664,74.78 171.456664,71.7 C171.456664,68.62 173.216664,66.64 175.936664,66.64 C178.656664,66.64 180.396664,68.62 180.396664,71.7 Z" id="Sign" fill="#FFFFFF" fill-rule="nonzero"></path>
            </g>
        </g>
    </g>
</svg>