<svg viewBox="0 0 429 429" version="1.1" xmlns="http://www.w3.org/2000/svg" xmlns:xlink="http://www.w3.org/1999/xlink">
    <g id="Page-1" stroke="none" stroke-width="1" fill="none" fill-rule="evenodd" opacity="0.600000024">
        <g id="Homepage--Copy" transform="translate(-755.000000, -14070.000000)" fill="#FFFFFF" fill-rule="nonzero">
            <g id="collaborate" transform="translate(0.000000, 14070.000000)">
                <g id="img/asset/1" transform="translate(755.000000, 0.000000)">
                    <path fill='#DEEBC8' d="M223.388336,209.067068 L327.616048,27.2725283 L328.482069,27.772526 L226.077254,206.387564 L372.180405,60.7959162 L372.887511,61.5030219 L224.189166,209.680778 L223.829785,210.307612 L227.003077,209.476368 L405.910755,105.459121 L406.410752,106.325142 L230.624044,208.527855 L413.085124,160.732138 L413.338525,161.6995 L227.388061,210.409261 L226.372001,211 L429,211 L429,212 L224.65202,212 L224.032533,212.360171 L226.189871,213.614451 L414.826522,263.027859 L414.573122,263.995221 L229.425854,215.495857 L402.0349,315.851069 L401.5349,316.717094 L225.804887,214.547344 L222.412155,213.658617 L371.483245,362.207815 L370.77614,362.914921 L223.192143,215.847611 L328.482073,399.494878 L327.616048,399.994878 L222.493354,216.639301 L276.774906,420.651124 L275.808982,420.909942 L221.059519,215.139525 L220.5,216.115442 L220.5,429 L219.5,429 L219.5,217.859647 L219.331218,218.154038 L165.383828,420.909942 L164.417902,420.651123 L217.400346,221.521875 L115.076963,399.994878 L114.210938,399.494878 L218.398522,217.770329 L219.070393,215.245168 L217.953696,215.894418 L70.4166706,362.914921 L69.7095649,362.207815 L214.55272,217.871752 L36.7822566,321.227823 L36.2822566,320.361797 L217.339353,215.094874 L219.5,212.941792 L219.5,212.895778 L218.697867,212.685659 L4.42688231,268.813986 L4.17348178,267.846624 L216.724706,212.168789 L216.080352,212 L-1.27897692e-12,212 L-1.27891569e-12,211 L212.262832,211 L5.66147936,156.880735 L5.91487988,155.913373 L216.209154,211 L218.327501,211 L216.400189,209.079436 L31.9064045,101.814413 L32.4064022,100.948392 L213.613556,206.302559 L68.3052997,61.5030219 L69.0124065,60.7959151 L217.014535,208.279894 L218.043753,208.878283 L114.210942,27.772526 L115.076963,27.2725283 L219.5,209.407755 L219.5,209.278227 L166.014041,8.25656176 L166.979965,7.99774311 L219.5,205.389078 L219.5,-2.04636308e-12 L220.5,-2.04636308e-12 L220.5,209.147478 L220.596405,209.509806 L274.212845,7.99774311 L275.17877,8.25656176 L221.296104,210.769206 L221.535748,210.908535 L221.542058,210.906883 L223.388336,209.067068 Z M221.487427,212.382645 L221.500248,212.360283 L221.479809,212.380649 L221.487427,212.382645 Z"></path>
                </g>
            </g>
        </g>
    </g>
</svg>